<svg aria-hidden="true" style="position: absolute; width: 0; height: 0; overflow: hidden;" version="1.1" xmlns="http://www.w3.org/2000/svg" xmlns:xlink="http://www.w3.org/1999/xlink">
<defs>
<symbol id="icon-second-test" viewBox="0 0 32 32">
<path d="M27.429 2.286c0 3.107-0.637 5.857-1.911 8.25-1.262 2.381-2.845 4.202-4.75 5.464 1.905 1.262 3.488 3.089 4.75 5.482 1.274 2.381 1.911 5.125 1.911 8.232h1.714c0.167 0 0.304 0.053 0.411 0.161s0.161 0.244 0.161 0.411v1.143c0 0.167-0.054 0.304-0.161 0.411s-0.244 0.161-0.411 0.161h-26.286c-0.167 0-0.304-0.054-0.411-0.161s-0.161-0.244-0.161-0.411v-1.143c0-0.167 0.054-0.304 0.161-0.411s0.244-0.161 0.411-0.161h1.714c0-3.107 0.631-5.851 1.893-8.232 1.274-2.393 2.863-4.22 4.768-5.482-1.905-1.262-3.494-3.083-4.768-5.464-1.262-2.393-1.893-5.143-1.893-8.25h-1.714c-0.167 0-0.304-0.054-0.411-0.161s-0.161-0.244-0.161-0.411v-1.143c0-0.167 0.054-0.304 0.161-0.411s0.244-0.161 0.411-0.161h26.286c0.167 0 0.304 0.054 0.411 0.161s0.161 0.244 0.161 0.411v1.143c0 0.167-0.054 0.304-0.161 0.411s-0.244 0.161-0.411 0.161h-1.714zM25.143 2.286h-18.286c0 2.452 0.506 4.738 1.518 6.857h15.25c1.012-2.119 1.518-4.405 1.518-6.857zM24.125 24c-0.643-1.679-1.512-3.113-2.607-4.304-1.083-1.202-2.238-2.054-3.464-2.554h-4.107c-1.226 0.5-2.387 1.351-3.482 2.554-1.083 1.191-1.946 2.625-2.589 4.304h16.25z"></path>
</symbol>
<symbol id="icon-pref-test" viewBox="0 0 35 32">
<path d="M18.367 30.774c-0.236 0.236-0.525 0.355-0.867 0.355s-0.63-0.118-0.867-0.355l-12.292-11.859c-0.131-0.105-0.315-0.276-0.552-0.512-0.223-0.236-0.584-0.663-1.083-1.28-0.499-0.63-0.946-1.274-1.339-1.93s-0.749-1.451-1.064-2.383c-0.302-0.932-0.453-1.839-0.453-2.718 0-2.889 0.834-5.148 2.502-6.776s3.973-2.443 6.914-2.443c0.814 0 1.642 0.144 2.482 0.433 0.854 0.276 1.642 0.657 2.364 1.143 0.735 0.473 1.366 0.919 1.891 1.339s1.024 0.867 1.497 1.339c0.473-0.473 0.972-0.919 1.497-1.339s1.149-0.867 1.871-1.339c0.735-0.486 1.523-0.867 2.364-1.143 0.854-0.289 1.688-0.433 2.502-0.433 2.942 0 5.246 0.814 6.914 2.443s2.502 3.887 2.502 6.776c0 2.902-1.504 5.857-4.511 8.864l-12.272 11.819z"></path>
</symbol>
<symbol id="icon-surveys" viewBox="0 0 32 32">
<path d="M17.7 12.933v-1.967c0-0.467-0.167-0.867-0.5-1.2s-0.733-0.5-1.2-0.5c-0.467 0-0.867 0.167-1.2 0.5s-0.5 0.733-0.5 1.2v10.2c0 1.944-0.7 3.605-2.1 4.983s-3.083 2.067-5.050 2.067c-1.978 0-3.667-0.695-5.067-2.083-1.389-1.4-2.083-3.089-2.083-5.067v-4.433h5.467v4.367c0 0.478 0.167 0.883 0.5 1.217 0.333 0.322 0.733 0.483 1.2 0.483s0.867-0.161 1.2-0.483c0.333-0.333 0.5-0.739 0.5-1.217v-10.333c0-1.9 0.7-3.522 2.1-4.867 1.411-1.344 3.089-2.017 5.033-2.017 1.956 0 3.633 0.678 5.033 2.033s2.1 2.989 2.1 4.9v2.267l-3.25 0.967-2.183-1.017zM26.533 16.633h5.467v4.433c0 1.978-0.7 3.667-2.1 5.067-1.389 1.389-3.072 2.083-5.050 2.083-1.967 0-3.65-0.689-5.050-2.067-1.4-1.389-2.1-3.061-2.1-5.017v-4.467l2.183 1.017 3.25-0.967v4.5c0 0.467 0.166 0.866 0.5 1.2 0.333 0.322 0.733 0.483 1.2 0.483s0.867-0.161 1.2-0.483c0.333-0.333 0.5-0.733 0.5-1.2v-4.583z"></path>
</symbol>
<symbol id="icon-click" viewBox="0 0 32 32">
<path d="M25.782 18.584c0.363 0.352 0.445 0.756 0.246 1.213-0.199 0.469-0.545 0.703-1.037 0.703h-6.715l3.533 8.367c0.117 0.293 0.117 0.58 0 0.861s-0.316 0.486-0.598 0.615l-3.111 1.318c-0.293 0.117-0.58 0.117-0.861 0s-0.486-0.316-0.615-0.598l-3.357-7.945-5.484 5.484c-0.223 0.223-0.486 0.334-0.791 0.334-0.141 0-0.281-0.029-0.422-0.088-0.469-0.199-0.703-0.545-0.703-1.037v-26.437c0-0.492 0.234-0.838 0.703-1.037 0.141-0.059 0.281-0.088 0.422-0.088 0.316 0 0.58 0.111 0.791 0.334l18 18z"></path>
</symbol>
</defs>
</svg>
